<?xml version="1.0"?><svg xmlns="http://www.w3.org/2000/svg" xmlns:xlink="http://www.w3.org/1999/xlink" version="1.1" id="Layer_1" viewBox="0 0 110 110" style="enable-background:new 0 0 110 110;" xml:space="preserve"><style type="text/css">
	.st0{enable-background:new    ;}
	.st1{fill:#39C988;}
	.st2{fill:#189453;}
	.st3{fill:#28AF6E;}
	.st4{fill:#49E4A3;}
	.st5{fill:#BCC1CB;}
	.st6{fill:#CCD0D9;}
	.st7{fill:#FFFFFF;}
	.st8{fill:none;stroke:#4F575F;stroke-width:0.3;stroke-linecap:round;stroke-linejoin:round;stroke-miterlimit:10;}
	.st9{fill:none;stroke:#E22525;stroke-width:0.3;stroke-linecap:round;stroke-linejoin:round;stroke-miterlimit:10;}
	.st10{opacity:0.4;}
	.st11{fill:url(#SVGID_1_);}
	.st12{fill:#2A3134;}
	.st13{fill:#BBCFEF;}
	.st14{fill:#EBF2FF;}
	.st15{fill:#DBE6FA;}
	.st16{fill:#CBDBF4;}
	.st17{fill:none;stroke:#F04343;stroke-width:0.3;stroke-linecap:round;stroke-linejoin:round;stroke-miterlimit:10;}
	.st18{fill:#3D4449;}
	.st19{fill:#4F575F;}
	.st20{fill:none;stroke:#FFFFFF;stroke-width:0.4;stroke-linecap:round;stroke-linejoin:round;stroke-miterlimit:10;}
	.st21{fill:#DBDFE6;}
	.st22{fill:#B785FF;}
	.st23{fill:#FF6161;}
	.st24{opacity:0.2;fill:#49E4A3;}
	.st25{opacity:0.2;fill:#28AF6E;}
	.st26{opacity:0.3;fill:#189453;}
	.st27{fill:none;stroke:#4F575F;stroke-width:0.5;stroke-linecap:round;stroke-linejoin:round;stroke-miterlimit:10;}
	.st28{fill:#457AEF;}
	.st29{fill:#3A63DF;}
	.st30{fill:#4F91FF;}
	.st31{fill:#FDC8B8;}
	.st32{fill:#E99B8A;}
	.st33{fill:none;stroke:#4F91FF;stroke-width:0.4;stroke-linecap:round;stroke-linejoin:round;stroke-miterlimit:10;}
	.st34{fill:none;stroke:#BBCFEF;stroke-width:0.7;stroke-miterlimit:10;}
	.st35{fill:none;stroke:#4F575F;stroke-width:0.8;stroke-linecap:round;stroke-linejoin:round;stroke-miterlimit:10;}
	.st36{fill:#F3B2A1;}
	.st37{opacity:0.5;fill:url(#SVGID_2_);}
	.st38{opacity:0.4;fill:#FFFFFF;}
	.st39{fill:none;stroke:#F04343;stroke-width:0.8;stroke-linecap:round;stroke-linejoin:round;stroke-miterlimit:10;}
	.st40{fill:none;stroke:#FFCA6C;stroke-width:0.8;stroke-linecap:round;stroke-linejoin:round;stroke-miterlimit:10;}
	.st41{fill:#EBEEF4;}
	.st42{fill:#FFDE9B;}
	.st43{fill:#FFD06C;}
	.st44{fill:none;stroke:#CBDBF4;stroke-width:0.7;stroke-miterlimit:10;}
	.st45{fill:none;stroke:#FF6161;stroke-width:0.5;stroke-miterlimit:10;}
	.st46{fill:#FFB63C;}
	.st47{opacity:0.5;fill:url(#SVGID_3_);}
	.st48{fill:url(#SVGID_4_);}
	.st49{fill:#FFCA6C;}
	.st50{fill:#F04343;}
	.st51{fill:url(#SVGID_5_);}
	.st52{fill:url(#SVGID_6_);}
	.st53{fill:url(#SVGID_7_);}
	.st54{fill:none;stroke:#4F575F;stroke-width:0.4;stroke-linecap:round;stroke-linejoin:round;stroke-miterlimit:10;}
	.st55{fill:none;stroke:#FFB63C;stroke-width:0.4;stroke-linecap:round;stroke-linejoin:round;stroke-miterlimit:10;}
	.st56{fill:none;stroke:#E22525;stroke-width:0.4;stroke-linecap:round;stroke-linejoin:round;stroke-miterlimit:10;}
	.st57{opacity:0.7;fill:url(#SVGID_8_);}
	.st58{opacity:0.7;fill:url(#SVGID_9_);}
	.st59{opacity:0.7;fill:url(#SVGID_10_);}
	.st60{opacity:0.1;fill:#49E4A3;}
	.st61{opacity:0.15;fill:#28AF6E;}
	.st62{opacity:0.1;fill:#28AF6E;}
	.st63{opacity:0.25;fill:#189453;}
	.st64{opacity:0.5;fill:none;stroke:#49E4A3;stroke-miterlimit:10;}
	.st65{opacity:0.3;fill:none;stroke:#49E4A3;stroke-miterlimit:10;}
	.st66{fill:#BC874D;}
	.st67{fill:#4DCDF3;}
	.st68{fill:#84DBFF;}
	.st69{fill:#ECF0F1;}
	.st70{opacity:0.2;}
	.st71{fill:#FFA20D;}
	.st72{opacity:0.4;fill:url(#SVGID_11_);}
	.st73{fill:url(#SVGID_12_);}
	.st74{fill:url(#SVGID_13_);}
	.st75{fill:url(#SVGID_14_);}
	.st76{fill:url(#SVGID_15_);}
	.st77{fill:#181E1E;}
	.st78{fill:#E5BD13;}
	.st79{opacity:0.45;fill:#FFDE9B;}
	.st80{fill:#757B86;}
	.st81{fill:#BCC6D7;}
	.st82{fill:#A9B2C1;}
	.st83{opacity:0.8;fill:url(#SVGID_16_);}
	.st84{opacity:0.8;fill:url(#SVGID_17_);}
	.st85{opacity:0.9;}
	.st86{fill:none;stroke:#CCD0D9;stroke-width:0.9;stroke-linecap:round;stroke-linejoin:round;stroke-miterlimit:10;}
	.st87{fill:none;stroke:#4F575F;stroke-width:0.6;stroke-linecap:round;stroke-linejoin:round;stroke-miterlimit:10;}
	.st88{opacity:0.4;fill:#39C988;}
	.st89{opacity:0.4;fill:#28AF6E;}
	
		.st90{fill:none;stroke:#4F575F;stroke-width:0.4;stroke-linecap:round;stroke-linejoin:round;stroke-dasharray:3.0188415,0,1.0062805,3.0188415,0,1.0062805;}
	.st91{fill:none;stroke:#189453;stroke-width:0.4;stroke-linecap:round;stroke-linejoin:round;stroke-miterlimit:10;}
	.st92{opacity:0.8;fill:url(#SVGID_18_);}
	.st93{opacity:0.8;fill:url(#SVGID_19_);}
	.st94{fill:none;stroke:#4F575F;stroke-width:0.4;stroke-miterlimit:10;}
	.st95{fill:#897753;}
	.st96{fill:none;stroke:#FFFFFF;stroke-width:0.3;stroke-linecap:round;stroke-linejoin:round;stroke-miterlimit:10;}
	.st97{fill:#E22525;}
	.st98{fill:#D30707;}
	.st99{fill:#6DCB60;}
	.st100{opacity:0.6;fill:#95E2FE;}
	.st101{fill:none;stroke:#DBE6FA;stroke-width:0.8;stroke-miterlimit:10;}
	.st102{fill:#804F59;}
	.st103{fill:#70444D;}
	.st104{fill:#512E35;}
	.st105{opacity:0.4;fill:url(#SVGID_20_);}
	.st106{fill:url(#SVGID_21_);}
	.st107{fill:url(#SVGID_22_);}
	.st108{fill:url(#SVGID_23_);}
	.st109{fill:url(#SVGID_24_);}
	.st110{fill:none;stroke:#DBE6FA;stroke-width:0.7;stroke-linecap:round;stroke-linejoin:round;stroke-miterlimit:10;}
	.st111{opacity:0.5;}
	.st112{fill:#71D8F8;}
	.st113{opacity:0.4;fill:#71D8F8;}
	.st114{opacity:0.5;fill:#FF6161;}
	.st115{opacity:0.5;fill:#FFFFFF;}
	.st116{fill:none;stroke:#DBE6FA;stroke-width:0.3;stroke-miterlimit:10;}
	.st117{opacity:0.7;}
	.st118{opacity:0.8;}
	.st119{fill:url(#SVGID_25_);}
	.st120{fill:url(#SVGID_26_);}
	.st121{fill:url(#SVGID_27_);}
	.st122{fill:url(#SVGID_28_);}
	.st123{fill:url(#SVGID_29_);}
	.st124{fill:url(#SVGID_30_);}
	.st125{fill:none;stroke:#FFCA6C;stroke-width:0.3;stroke-miterlimit:10;}
	.st126{opacity:0.5;fill:#95E2FE;}
	.st127{fill:#95E2FE;}
	.st128{fill:#E9E8E6;}
	.st129{fill:none;stroke:#CCD0D9;stroke-width:0.5;stroke-linecap:round;stroke-linejoin:round;stroke-miterlimit:10;}
	.st130{opacity:0.3;}
	.st131{fill:none;stroke:#49E4A3;stroke-linecap:round;stroke-linejoin:round;stroke-miterlimit:10;}
	.st132{fill:#A46EF2;}
	.st133{fill:#9156E5;}
	.st134{fill:none;stroke:#DBDFE6;stroke-width:0.7;stroke-linecap:round;stroke-linejoin:round;stroke-miterlimit:10;}
	.st135{fill:url(#SVGID_31_);}
	.st136{fill:none;stroke:#FFB63C;stroke-width:0.7;stroke-linecap:round;stroke-linejoin:round;stroke-miterlimit:10;}
	.st137{fill:none;stroke:#CBDBF4;stroke-width:0.7;stroke-linecap:round;stroke-linejoin:round;stroke-miterlimit:10;}
	.st138{opacity:0.8;fill:url(#SVGID_32_);}
	.st139{opacity:0.8;fill:url(#SVGID_33_);}
	.st140{fill:none;stroke:#2A3134;stroke-width:1.7;stroke-linecap:round;stroke-linejoin:round;stroke-miterlimit:10;}
	.st141{fill:none;stroke:#4F575F;stroke-width:1.7;stroke-linecap:round;stroke-linejoin:round;stroke-miterlimit:10;}
	.st142{fill:none;stroke:#FFCA6C;stroke-width:0.7;stroke-linecap:round;stroke-linejoin:round;stroke-miterlimit:10;}
	.st143{fill:none;stroke:#4F91FF;stroke-width:0.7;stroke-linecap:round;stroke-linejoin:round;stroke-miterlimit:10;}
	.st144{fill:none;stroke:#2A3134;stroke-width:0.7;stroke-linecap:round;stroke-linejoin:round;stroke-miterlimit:10;}
	.st145{fill:none;stroke:#FF6161;stroke-width:0.7;stroke-linecap:round;stroke-linejoin:round;stroke-miterlimit:10;}
	.st146{fill:url(#SVGID_34_);}
	.st147{fill:none;stroke:#4F575F;stroke-linecap:round;stroke-linejoin:round;stroke-miterlimit:10;stroke-dasharray:2.7;}
	.st148{fill:none;stroke:#4F575F;stroke-linecap:round;stroke-linejoin:round;stroke-miterlimit:10;}
	.st149{opacity:0.3;fill:url(#SVGID_35_);}
	.st150{fill:none;stroke:#4F575F;stroke-width:0.3;stroke-miterlimit:10;}
	.st151{fill:none;stroke:#FFFFFF;stroke-width:0.8;stroke-linecap:round;stroke-linejoin:round;stroke-miterlimit:10;}
	.st152{fill:none;stroke:#FFDE9B;stroke-width:0.8;stroke-linecap:round;stroke-linejoin:round;stroke-miterlimit:10;}
	.st153{fill:none;stroke:#FF6161;stroke-width:0.8;stroke-linecap:round;stroke-linejoin:round;stroke-miterlimit:10;}
	.st154{fill:none;stroke:#49E4A3;stroke-width:0.8;stroke-linecap:round;stroke-linejoin:round;stroke-miterlimit:10;}
	.st155{opacity:0.8;fill:#39C988;}
	.st156{opacity:0.8;fill:#28AF6E;}
	.st157{fill:#FC7E7E;}
	.st158{opacity:0.6;fill:url(#SVGID_36_);}
	.st159{opacity:0.6;fill:url(#SVGID_37_);}
	.st160{fill:url(#SVGID_38_);}
	.st161{fill:url(#SVGID_39_);}
	.st162{fill:url(#SVGID_40_);}
	.st163{opacity:0.8;fill:url(#SVGID_41_);}
	.st164{opacity:0.8;fill:url(#SVGID_42_);}
	.st165{opacity:0.4;fill:#FFB63C;}
	.st166{opacity:0.4;fill:#FFA20D;}
	.st167{fill:none;stroke:#FFCA6C;stroke-width:0.5;stroke-miterlimit:10;}
	.st168{fill:none;stroke:#4F575F;stroke-width:0.7;stroke-linecap:round;stroke-linejoin:round;stroke-miterlimit:10;}
	.st169{fill:url(#SVGID_43_);}
	.st170{opacity:0.8;fill:none;stroke:#FFFFFF;stroke-linecap:round;stroke-linejoin:round;stroke-miterlimit:10;}
	.st171{opacity:0.8;fill:#FFFFFF;stroke:#F04343;stroke-linecap:round;stroke-linejoin:round;stroke-miterlimit:10;}
	.st172{opacity:0.8;fill:none;stroke:#804F59;stroke-linecap:round;stroke-linejoin:round;stroke-miterlimit:10;}
	.st173{fill:none;stroke:#FF6161;stroke-width:0.6;stroke-linecap:round;stroke-linejoin:round;stroke-miterlimit:10;}
	.st174{fill:none;stroke:#FF6161;stroke-width:0.6;stroke-miterlimit:10;}
	.st175{fill:none;stroke:#71D8F8;stroke-linecap:round;stroke-linejoin:round;stroke-miterlimit:10;}
	.st176{fill:none;stroke:#BCC1CB;stroke-width:1.2;stroke-linecap:round;stroke-linejoin:round;stroke-miterlimit:10;}
	.st177{opacity:0.9;fill:url(#SVGID_44_);}
	.st178{opacity:0.3;fill:url(#SVGID_45_);}
	.st179{fill:url(#SVGID_46_);}
	.st180{fill:url(#SVGID_47_);}
	.st181{fill:url(#SVGID_48_);}
	.st182{fill:url(#SVGID_49_);}
	.st183{fill:none;stroke:#EBF2FF;stroke-width:0.8;stroke-miterlimit:10;}
	.st184{fill:#304CCF;}
	.st185{opacity:0.6;}
	.st186{opacity:0.35;}
	.st187{fill:url(#SVGID_50_);}
	.st188{fill:url(#SVGID_51_);}
	.st189{fill:#F8F9FE;}
	.st190{fill:none;stroke:#4F91FF;stroke-width:0.8;stroke-linecap:round;stroke-linejoin:round;stroke-miterlimit:10;}
	.st191{opacity:0.9;fill:url(#SVGID_52_);}
	.st192{fill:url(#SVGID_53_);}
	.st193{fill:url(#SVGID_54_);}
	.st194{fill:url(#SVGID_55_);}
	.st195{fill:url(#SVGID_56_);}
	.st196{fill:url(#SVGID_57_);}
	.st197{fill:url(#SVGID_58_);}
	.st198{opacity:0.2;fill:#4F575F;}
	.st199{fill:#AFBDD2;}
	.st200{opacity:0.4;fill:#49E4A3;}
	.st201{opacity:0.5;fill:#189453;}
	.st202{fill:url(#SVGID_59_);}
	.st203{fill:none;stroke:#BBCFEF;stroke-width:0.5;stroke-linecap:round;stroke-linejoin:round;stroke-miterlimit:10;}
	.st204{fill:none;stroke:#FF6161;stroke-width:0.3;stroke-miterlimit:10;}
	.st205{fill:none;stroke:#CBDBF4;stroke-width:0.5;stroke-linecap:round;stroke-linejoin:round;stroke-miterlimit:10;}
	.st206{fill:#355EB9;}
	.st207{fill:url(#SVGID_60_);}
	.st208{fill:none;stroke:#FFCA6C;stroke-linecap:round;stroke-linejoin:round;stroke-miterlimit:10;}
	.st209{fill:none;stroke:#DBE6FA;stroke-width:0.6;stroke-linecap:round;stroke-linejoin:round;stroke-miterlimit:10;}
	.st210{fill:#2A4E89;}
	.st211{fill:none;}
	.st212{opacity:0.8;fill:url(#SVGID_61_);}
	.st213{opacity:0.8;fill:url(#SVGID_62_);}
	.st214{opacity:0.5;fill:#28AF6E;}
	.st215{opacity:0.5;fill:url(#SVGID_63_);}
	.st216{fill:none;stroke:#DBE6FA;stroke-width:0.8;stroke-linecap:round;stroke-linejoin:round;stroke-miterlimit:10;}
	.st217{fill:#29C3ED;}
	.st218{fill:none;stroke:#E22525;stroke-width:0.6;stroke-linecap:round;stroke-linejoin:round;stroke-miterlimit:10;}
	.st219{fill:#E2DEFF;}
	.st220{fill:#F7F5FF;}
	.st221{fill:#C4C2C0;}
	.st222{fill:url(#SVGID_64_);}
	.st223{opacity:0.5;fill:url(#SVGID_65_);}
	.st224{opacity:0.5;fill:url(#SVGID_66_);}
	.st225{opacity:0.5;fill:url(#SVGID_67_);}
	.st226{opacity:0.6;fill:#28AF6E;}
	.st227{opacity:0.6;fill:#189453;}
	.st228{fill:url(#SVGID_68_);}
	.st229{fill:url(#SVGID_69_);}
	.st230{fill:#613941;}
	.st231{opacity:0.6;fill:#3A63DF;}
	.st232{opacity:0.6;fill:#304CCF;}
	.st233{opacity:0.7;fill:url(#SVGID_70_);}
	.st234{fill:none;stroke:#4F91FF;stroke-width:0.5;stroke-linecap:round;stroke-linejoin:round;stroke-miterlimit:10;}
	.st235{opacity:0.3;fill:#FFFFFF;}
	.st236{opacity:0.5;fill:url(#SVGID_71_);}
	.st237{fill:#7E3FD8;}
	.st238{opacity:0.25;}
	.st239{fill:none;stroke:#457AEF;stroke-width:0.4;stroke-linecap:round;stroke-linejoin:round;stroke-miterlimit:10;}
	.st240{fill:none;stroke:#FF6161;stroke-width:0.4;stroke-linecap:round;stroke-linejoin:round;stroke-miterlimit:10;}
	.st241{opacity:0.5;fill:url(#SVGID_72_);}
	.st242{opacity:0.8;fill:url(#SVGID_73_);}
	.st243{opacity:0.8;fill:url(#SVGID_74_);}
	.st244{fill:url(#SVGID_75_);}
	.st245{fill:url(#SVGID_76_);}
	.st246{fill:url(#SVGID_77_);}
	.st247{fill:none;stroke:#BBCFEF;stroke-width:0.7;stroke-linecap:round;stroke-linejoin:round;stroke-miterlimit:10;}
	.st248{opacity:0.8;fill:url(#SVGID_78_);}
	.st249{opacity:0.8;fill:url(#SVGID_79_);}
	.st250{fill:none;stroke:#BBCFEF;stroke-width:0.6;stroke-linecap:round;stroke-linejoin:round;stroke-miterlimit:10;}
	.st251{fill:none;stroke:#4F91FF;stroke-linecap:round;stroke-linejoin:round;stroke-miterlimit:10;}
	.st252{fill:none;stroke:#BBCFEF;stroke-width:0.6;stroke-miterlimit:10;}
	.st253{fill:url(#SVGID_80_);}
	.st254{opacity:0.8;fill:url(#SVGID_81_);}
	.st255{opacity:0.8;fill:url(#SVGID_82_);}
	.st256{fill:url(#SVGID_83_);}
	.st257{fill:url(#SVGID_84_);}
	.st258{fill:url(#SVGID_85_);}
	.st259{fill:url(#SVGID_86_);}
	.st260{fill:url(#SVGID_87_);}
	.st261{fill:url(#SVGID_88_);}
	.st262{fill:url(#SVGID_89_);}
	.st263{fill:none;stroke:#CBDBF4;stroke-width:0.8;stroke-miterlimit:10;}
	.st264{fill:none;stroke:#FF6161;stroke-width:0.5;stroke-linecap:round;stroke-linejoin:round;stroke-miterlimit:10;}
	.st265{opacity:0.6;fill:url(#SVGID_90_);}
	.st266{fill:url(#SVGID_91_);}
	.st267{fill:url(#SVGID_92_);}
	.st268{fill:url(#SVGID_93_);}
	.st269{fill:url(#SVGID_94_);}
	.st270{fill:none;stroke:#FFFFFF;stroke-width:0.6;stroke-linecap:round;stroke-linejoin:round;stroke-miterlimit:10;}
	.st271{fill:none;stroke:#FFFFFF;stroke-width:0.5;stroke-linecap:round;stroke-linejoin:round;stroke-miterlimit:10;}
	.st272{fill:url(#SVGID_95_);}
	.st273{fill:url(#SVGID_96_);}
	.st274{opacity:0.9;fill:url(#SVGID_97_);}
	.st275{fill:url(#SVGID_98_);}
	.st276{opacity:0.9;fill:url(#SVGID_99_);}
	.st277{fill:url(#SVGID_100_);}
	.st278{fill:url(#SVGID_101_);}
	.st279{fill:url(#SVGID_102_);}
	.st280{fill:url(#SVGID_103_);}
	.st281{fill:url(#SVGID_104_);}
	.st282{fill:none;stroke:#CBDBF4;stroke-width:0.4;stroke-miterlimit:10;}
	.st283{fill:url(#SVGID_105_);}
	.st284{fill:url(#SVGID_106_);}
	.st285{opacity:0.7;fill:url(#SVGID_107_);}
	.st286{fill:url(#SVGID_108_);}
	.st287{fill:url(#SVGID_109_);}
	.st288{fill:url(#SVGID_110_);}
	.st289{fill:url(#SVGID_111_);}
	.st290{opacity:0.9;fill:url(#SVGID_112_);}
	.st291{fill:url(#SVGID_113_);}
	.st292{opacity:0.9;fill:url(#SVGID_114_);}
	.st293{fill:url(#SVGID_115_);}
	.st294{fill:url(#SVGID_116_);}
	.st295{fill:url(#SVGID_117_);}
	.st296{fill:url(#SVGID_118_);}
	.st297{fill:url(#SVGID_119_);}
	.st298{opacity:0.33;}
	.st299{opacity:0.4;fill:none;stroke:#4F575F;stroke-width:0.5;stroke-linecap:round;stroke-linejoin:round;stroke-miterlimit:10;}
	.st300{fill:#BDC0C6;}
	.st301{fill:#91959D;}
	.st302{opacity:0.3;fill:#4F91FF;}
	.st303{opacity:0.3;fill:#457AEF;}
	.st304{opacity:0.49;}
	.st305{opacity:0.9;fill:#FFFFFF;}
	.st306{fill:none;stroke:#FFDE9B;stroke-width:0.3;stroke-linecap:round;stroke-linejoin:round;stroke-miterlimit:10;}
	.st307{fill:none;stroke:#FF6161;stroke-width:0.3;stroke-linecap:round;stroke-linejoin:round;stroke-miterlimit:10;}
	.st308{fill:none;stroke:#FFCA6C;stroke-width:0.3;stroke-linecap:round;stroke-linejoin:round;stroke-miterlimit:10;}
	.st309{fill:none;stroke:#CBDBF4;stroke-width:0.5;stroke-miterlimit:10;}
	.st310{opacity:0.5;fill:url(#SVGID_120_);}
	.st311{fill:url(#SVGID_121_);}
	.st312{fill:url(#SVGID_122_);}
	.st313{fill:url(#SVGID_123_);}
	.st314{fill:url(#SVGID_124_);}
	.st315{fill:url(#SVGID_125_);}
	.st316{opacity:0.5;fill:url(#SVGID_126_);}
	.st317{opacity:0.5;fill:#4F91FF;}
	.st318{fill:#566DF9;}
	.st319{fill:#7389DE;}
	.st320{fill:#FFCA6C;stroke:#FFFFFF;stroke-width:0.4;stroke-miterlimit:10;}
	.st321{fill:#FF6161;stroke:#FFFFFF;stroke-width:0.4;stroke-miterlimit:10;}
	.st322{fill:#804F59;stroke:#FFFFFF;stroke-width:0.4;stroke-miterlimit:10;}
	.st323{opacity:0.9;fill:url(#SVGID_127_);}
	
		.st324{fill:none;stroke:#4F575F;stroke-width:0.5;stroke-linecap:round;stroke-linejoin:round;stroke-miterlimit:10;stroke-dasharray:3,3;}
	.st325{opacity:0.5;fill:#49E4A3;}
	.st326{fill:none;stroke:#BBCFEF;stroke-width:0.25;stroke-linecap:round;stroke-linejoin:round;stroke-miterlimit:10;}
	.st327{fill:#DCEEFF;}
	.st328{opacity:0.5;fill:url(#SVGID_128_);}
	.st329{fill:#646F80;}
	.st330{opacity:0.3;fill:#B785FF;}
	.st331{opacity:0.7;fill:#FF6161;}
	.st332{fill:#28AF6E;stroke:#DBE6FA;stroke-linecap:round;stroke-linejoin:round;stroke-miterlimit:10;}
	.st333{fill:url(#SVGID_129_);}
	.st334{opacity:0.4;fill:#FFCA6C;}
	.st335{opacity:0.15;fill:#49E4A3;}
	.st336{opacity:0.15;}
	.st337{fill:none;stroke:#95E2FE;stroke-linecap:round;stroke-miterlimit:10;}
	.st338{opacity:0.2;fill:#FFFFFF;}
	.st339{fill:none;stroke:#DBE6FA;stroke-width:0.25;stroke-linecap:round;stroke-linejoin:round;stroke-miterlimit:10;}
	.st340{opacity:0.3;fill:#49E4A3;}
	.st341{fill:url(#SVGID_130_);}
	.st342{fill:url(#SVGID_131_);}
	.st343{fill:url(#SVGID_132_);}
	.st344{fill:url(#SVGID_133_);}
	.st345{fill:url(#SVGID_134_);}
	.st346{fill:url(#SVGID_135_);}
	.st347{fill:#CFB0FF;}
	.st348{opacity:0.1;fill:#FFFFFF;}
	.st349{fill:url(#SVGID_136_);}
	.st350{fill:url(#SVGID_137_);}
	.st351{fill:url(#SVGID_138_);}
	.st352{fill:url(#SVGID_139_);}
	.st353{fill:url(#SVGID_140_);}
	.st354{fill:url(#SVGID_141_);}
	.st355{fill:url(#SVGID_142_);}
	.st356{fill:none;stroke:#95E2FE;stroke-width:0.25;stroke-linecap:round;stroke-linejoin:round;stroke-miterlimit:10;}
	.st357{fill:none;stroke:url(#SVGID_143_);stroke-width:2;stroke-miterlimit:10;}
	.st358{fill:url(#SVGID_144_);}
	.st359{clip-path:url(#SVGID_146_);}
	.st360{fill:#1C5DFD;}
	.st361{fill:url(#SVGID_147_);}
	.st362{opacity:0.3;fill:url(#SVGID_148_);}
	.st363{fill:url(#SVGID_149_);}
	.st364{opacity:0.5;fill:#FFDE9B;}
	.st365{fill:url(#SVGID_150_);}
	.st366{fill:none;stroke:#49E4A3;stroke-width:0.6;stroke-linecap:round;stroke-linejoin:round;stroke-miterlimit:10;}
	.st367{opacity:0.5;fill:none;stroke:#49E4A3;stroke-width:0.7;stroke-miterlimit:10;}
	.st368{opacity:0.6;fill:none;stroke:#FFFFFF;stroke-width:0.4;stroke-linecap:round;stroke-linejoin:round;stroke-miterlimit:10;}
	.st369{opacity:0.1;}
	.st370{fill:none;stroke:#457AEF;stroke-width:0.6340201;stroke-linecap:round;stroke-linejoin:round;stroke-miterlimit:10;}
	.st371{fill:none;stroke:#EBF2FF;stroke-width:0.21134;stroke-linecap:round;stroke-miterlimit:10;}
	.st372{fill:none;stroke:#95E2FE;stroke-width:0.6340201;stroke-linecap:round;stroke-linejoin:round;stroke-miterlimit:10;}
	.st373{fill:#28AF6E;stroke:#DBE6FA;stroke-width:0.3008598;stroke-linecap:round;stroke-linejoin:round;stroke-miterlimit:10;}
	.st374{fill:none;stroke:#BBCFEF;stroke-width:0.1321777;stroke-miterlimit:10;}
	.st375{fill:url(#SVGID_151_);}
	.st376{fill:url(#SVGID_152_);}
	.st377{fill:url(#SVGID_153_);}
	.st378{fill:url(#SVGID_154_);}
	.st379{fill:url(#SVGID_155_);}
	.st380{opacity:0.7;fill:#CBDBF4;}
	.st381{opacity:0.7;fill:#EBF2FF;}
	.st382{fill:url(#SVGID_156_);}
	.st383{fill:url(#SVGID_157_);}
	.st384{fill:url(#SVGID_158_);}
	.st385{opacity:0.05;}
	.st386{fill:url(#SVGID_159_);}
	.st387{fill:url(#SVGID_160_);}
	.st388{fill:url(#SVGID_161_);}
	.st389{fill:url(#SVGID_162_);}
	.st390{fill:url(#SVGID_163_);}
	.st391{fill:url(#SVGID_164_);}
	.st392{fill:url(#SVGID_165_);}
	.st393{fill:url(#SVGID_166_);}
	.st394{fill:url(#SVGID_167_);}
	.st395{fill:url(#SVGID_168_);}
	.st396{fill:none;stroke:#4DCDF3;stroke-width:0.4296572;stroke-miterlimit:10;}
	.st397{opacity:0.1;fill:#EBF2FF;}
	.st398{fill:none;stroke:#4DCDF3;stroke-width:0.4296572;stroke-linecap:round;stroke-linejoin:round;stroke-miterlimit:10;}
	.st399{opacity:0.35;fill:#FF6161;}
	.st400{opacity:0.6;fill:#FFFFFF;}
	.st401{opacity:0.12;fill:#28AF6E;}
	.st402{opacity:0.12;fill:#189453;}
	.st403{fill:url(#SVGID_169_);}
	.st404{fill:#BAC1CE;}
	.st405{fill:#D5DDE2;}
	.st406{fill:#72797F;}
	.st407{fill:#F45E40;}
	.st408{fill:#DFE7EA;}
	.st409{fill:none;stroke:#CBDBF4;stroke-width:0.8;stroke-linecap:round;stroke-linejoin:round;stroke-miterlimit:10;}
	.st410{fill:none;stroke:#49E4A3;stroke-width:0.4;stroke-linecap:round;stroke-linejoin:round;stroke-miterlimit:10;}
	.st411{fill:none;stroke:#4F91FF;stroke-width:0.6;stroke-linecap:round;stroke-linejoin:round;stroke-miterlimit:10;}
	.st412{fill:url(#SVGID_170_);}
	.st413{fill:url(#SVGID_171_);}
	.st414{fill:url(#SVGID_172_);}
	.st415{fill:url(#SVGID_173_);}
	.st416{fill:url(#SVGID_174_);}
	.st417{opacity:0.3;fill:#71D8F8;}
	.st418{fill:none;stroke:#CBDBF4;stroke-linecap:round;stroke-linejoin:round;stroke-miterlimit:10;}
	.st419{opacity:0.8;fill:#FFFFFF;}
	.st420{opacity:0.6;fill:none;stroke:#FF6161;stroke-width:0.6;stroke-linecap:round;stroke-linejoin:round;stroke-miterlimit:10;}
	.st421{opacity:0.6;fill:none;stroke:#4F575F;stroke-width:0.6;stroke-linecap:round;stroke-linejoin:round;stroke-miterlimit:10;}
	.st422{opacity:0.8;fill:url(#SVGID_175_);}
	.st423{opacity:0.8;fill:url(#SVGID_176_);}
	.st424{fill:none;stroke:#95E2FE;stroke-width:0.7;stroke-linecap:round;stroke-linejoin:round;stroke-miterlimit:10;}
	.st425{opacity:0.6;fill:url(#SVGID_177_);}
	.st426{opacity:0.53;}
	.st427{fill:none;stroke:#A5BBDB;stroke-width:0.7;stroke-linecap:round;stroke-linejoin:round;stroke-miterlimit:10;}
	.st428{fill:#A5BBDB;}
	.st429{fill:url(#SVGID_178_);}
	.st430{fill:url(#SVGID_179_);}
	.st431{fill:url(#SVGID_180_);}
	.st432{fill:url(#SVGID_181_);}
	.st433{fill:none;stroke:#FF6161;stroke-width:0.2;stroke-miterlimit:10;}
	.st434{fill:url(#SVGID_182_);}
	.st435{fill:url(#SVGID_183_);}
	.st436{fill:#29313F;}
	.st437{fill:url(#SVGID_184_);}
	.st438{fill:none;stroke:#95E2FE;stroke-width:0.3;stroke-linecap:round;stroke-linejoin:round;stroke-miterlimit:10;}
	.st439{opacity:0.8;fill:url(#SVGID_185_);}
	.st440{fill:none;stroke:#F04343;stroke-width:0.6;stroke-linecap:round;stroke-linejoin:round;stroke-miterlimit:10;}
	.st441{fill:none;stroke:#FFCA6C;stroke-width:0.6;stroke-linecap:round;stroke-linejoin:round;stroke-miterlimit:10;}
	.st442{fill:none;stroke:#2A3134;stroke-width:0.5;stroke-linecap:round;stroke-linejoin:round;stroke-miterlimit:10;}
	.st443{fill:#47566B;}
	.st444{fill:url(#SVGID_186_);}
	.st445{fill:url(#SVGID_187_);}
	.st446{opacity:0.6;fill:url(#SVGID_188_);}
	.st447{fill:#D4D6D6;}
	.st448{fill:#4C5C75;}
</style><g id="_x35_3"><g><g><g><path class="st247" d="M58.1830673,81.0717392c-11.415226,6.6337585-29.9672775,6.6337585-41.4530373,0      C5.2445145,74.4481888,5.1941338,63.6872902,16.5892105,57.063736c11.4151058-6.6336327,29.9773521-6.6336327,41.4628677,0      C69.5276413,63.6872902,69.5879745,74.4481888,58.1830673,81.0717392z"/></g><g><g><g><path class="st15" d="M55.6624718,78.3843689c-10.0299301,5.8286972-26.340229,5.8286972-36.4274826,0        c-8.6678228-5.0042038-9.8039598-11.3084335-3.763916-18.4252281l3.2477417-3.5918541        c-2.8820972,4.186882-1.3765488,9.1768188,4.50947,12.5750885c7.8720322,4.5524368,20.5976505,4.5524368,28.419363,0        c6.1154861-3.5488892,7.4346237-8.8470573,3.9359703-13.1558495l3.6420937,4.1726151        C65.2694321,66.5979767,64.2728806,73.3873444,55.6624718,78.3843689z"/><path class="st13" d="M22.9894276,70.9616089c-3.401268-1.8034668-6.4005108-4.4453506-7.3243418-8.1484375        c-1.6689453,2.4086914-2.3378906,4.6347656-1.9902344,6.637207c0.6997118,4.0362167,5.5270758,7.0478592,9.3145761,8.6607666        V70.9616089z"/><path class="st16" d="M59.1338348,62.8488159c-0.734375,3.0102539-2.9824219,5.6762695-6.5302734,7.7358398        c-5.9670753,3.4733963-14.0966263,4.348381-21.0686016,3.1796875v6.6616211        c9.3068714,1.3254089,17.7830715-0.5520172,23.1730938-3.6845703        C60.8125191,73.198143,63.2460709,68.5504837,59.1338348,62.8488159z"/><g><ellipse transform="matrix(0.002835 -0.999996 0.999996 0.002835 -23.4306087 97.9322662)" class="st14" cx="37.3898468" cy="60.7146988" rx="11.6418352" ry="20.0988579"/></g></g><g><g><g><g><g><g><g><g><g><path class="st133" d="M65.9937668,30.144762c-0.006752,1.9777164-0.7035904,3.3691273-1.8288803,4.0231152                l-2.356369,1.3694115c1.125309-0.6539879,1.8221283-2.0453987,1.8288994-4.0231304                c0.0112724-3.9757366-2.7850647-8.824213-6.2489014-10.8244915                c-1.7409363-1.0035248-3.3195076-1.0982342-4.4605904-0.4352341l2.3586082-1.3694115                c1.1388283-0.6630001,2.7173996-0.5705338,4.4583473,0.4352341                C63.2087212,21.3205338,66.0050583,26.1690102,65.9937668,30.144762z"/></g></g><path class="st132" d="M66.6978989,40.6888657c0,16.1710968-13.1182251,29.319397-29.3195801,29.319397              c-16.0361214,0-29.3192101-12.9904327-29.3192101-29.319397c0-16.2011681,13.1180429-29.3344307,29.3192101-29.3344307              c4.7154541,0,9.1586113,1.1032248,13.1030998,3.0830336              C60.1084366,19.2585411,66.6978989,29.2029686,66.6978989,40.6888657z"/><path class="st22" d="M59.8818893,35.9735947c0,16.1709137-13.1333542,29.3042679-29.3195801,29.3042679              c-4.715086,0-9.1584263-1.1032257-13.1029148-3.0829391              c-5.7884254-5.3500862-9.4002867-13.0125198-9.4002867-21.5060577              c0-16.2011681,13.1180429-29.3344307,29.3192101-29.3344307c4.7154541,0,9.1586113,1.1032248,13.1030998,3.0830336              C56.2545319,19.7875538,59.8818893,27.4499855,59.8818893,35.9735947z"/><g><path class="st133" d="M22.1583633,52.3497543c-0.0117722,3.9522018-2.4171791,5.8792725-5.632246,4.8716202               l0.0019627,0.0039253l-1.1311579-0.2430878l-0.1627045-0.1489944l0.260725-0.0215836               c-4.4693527-2.1470871-8.2019653-8.6238823-7.8063283-13.5051994l-0.194078,0.0646858l0.4293289-1.4408913h0.0019622               c0.8488584-3.0386276,3.6698813-4.0129433,7.0064807-2.0937004               C18.9315357,42.1517563,22.1720772,47.7506561,22.1583633,52.3497543z"/><g><path class="st132" d="M19.298687,52.6882706c-0.0118961,3.8743553-2.7552357,5.4385033-6.1242628,3.4893188                c-3.3690271-1.9491806-6.1003218-6.6657906-6.0882778-10.5400696                c0.0120435-3.8623085,2.7553816-5.4264565,6.1244097-3.4893188                C16.5795841,44.0973854,19.3107319,48.8139915,19.298687,52.6882706z"/></g><g><path class="st15" d="M17.1956139,51.6315193c-0.0104847,2.6970825-1.916461,3.8109016-4.2859802,2.4403801                c-2.3574696-1.3625832-4.2679501-4.6644669-4.260745-7.3751793                c0.0098114-2.6979485,1.9256363-3.7969093,4.2859802-2.4403801                C15.2923384,45.6189232,17.2028198,48.9190025,17.1956139,51.6315193z"/></g><g><path class="st237" d="M17.1956139,51.6315193c-0.0036087,0.9282112-0.2307053,1.6653633-0.6236153,2.180851                c-2.868165-0.163662-6.0296555-4.4598045-6.0180302-7.9573517                c0.0036077-0.9246063,0.2307053-1.6617813,0.6218109-2.1754227                C14.0601234,43.8343773,17.2048779,48.1441956,17.1956139,51.6315193z"/></g></g></g></g></g></g></g></g><g><g class="st0"><g><path class="st14" d="M63.0726776,53.8164253l-7.4722481-3.0653191           c-0.4276428-0.2485199-0.8059158-0.5820236-1.1251564-0.9950027l7.4722481,3.0653229           C62.2667656,53.2344055,62.6450386,53.5679054,63.0726776,53.8164253z"/></g><g><path class="st16" d="M67.6959152,31.2017689l6.3698883,3.7017765           c-1.3598328-0.7902489-3.2189789-0.7204247-5.2668304,0.3869972           c-0.0842667,0.0460014-0.1708145,0.0946388-0.2550659,0.14328l-6.3698845-3.7017765           C63.9006958,30.7351513,65.9938507,30.2126389,67.6959152,31.2017689z"/></g><g><path class="st16" d="M48.9601021,46.7405396l-6.3698845-3.7017632           c7.253437-3.1203995,14.621685-7.271534,19.5838051-11.306736l6.3698845,3.7017822L48.9601021,46.7405396z"/></g><g><path class="st15" d="M43.4833145,65.1368866l-6.3698883-3.7017708           c-1.3950806-0.8107338-2.260231-2.5343399-2.2671738-4.9832687           c-0.0139771-4.9305458,3.4519348-10.9337425,7.7439651-13.4130821l6.3698845,3.7017746           c-4.2920303,2.4793396-7.7579384,8.4825363-7.7439613,13.4130783           C41.2230835,62.6025467,42.0882339,64.3261566,43.4833145,65.1368866z"/></g><g><path class="st14" d="M68.5439072,35.4338226c0.0842514-0.0486412,0.1707993-0.0972786,0.2550659-0.14328           c4.0673981-2.1995354,7.3903885-0.3058586,7.535202,4.2901306           c0.1600189,5.0773277-3.4966507,11.4182968-7.9889526,13.8480606           c-2.6939011,1.4570465-5.0622787,1.120224-6.3977013-0.6073074l-6.3037987,3.6395035           c-1.3556519,3.3635788-3.8158875,6.5094414-6.631855,8.1352386           c-4.2908592,2.4773331-7.7817535,0.4866638-7.7957268-4.4425507           c-0.0139771-4.930542,3.451931-10.9337387,7.7439613-13.4130783L68.5439072,35.4338226z"/></g></g></g></g></g><g><g><path class="st19" d="M72.5621109,42.0616417c0.0077209,2.8167114-1.9724655,6.2477264-4.425972,7.6637955        c-2.4515686,1.4141579-4.4452782,0.2782021-4.4530029-2.5384827        c-0.0077209-2.8186455,1.9724655-6.2496834,4.4240341-7.6657524        C70.5606613,38.1051369,72.5543747,39.2410889,72.5621109,42.0616417z"/><path class="st30" d="M71.7893524,42.0635757c0.0077209,2.5230598-1.8430328,5.7241936-4.0395889,6.9934349        c-1.9167633,1.1008034-3.2871857,0.3651161-3.293869-1.8719902c-0.0105896-3.4582443,3.2163467-7.4602356,5.6160049-7.4996109        h0.0289688C71.1537552,39.6854095,71.7854843,40.5740967,71.7893524,42.0635757z"/><path class="st127" d="M70.4177017,41.2676392c0.010704,3.4888725-3.2509918,7.4665909-5.6179352,7.4957199        c-1.1577682-2.0739136,0.7108154-6.8485451,3.693779-8.5737076c0.5621796-0.3245659,1.1069717-0.4965057,1.5783539-0.5042419        C70.2959976,40.0814552,70.4157715,40.6165924,70.4177017,41.2676392z"/></g><g><path class="st19" d="M53.8721962,52.8527184c0.0077248,2.8167114-1.9724655,6.2477264-4.4259682,7.6637955        c-2.4515686,1.4141541-4.4452782,0.2782021-4.4530029-2.5384827        c-0.0077248-2.8186455,1.9724655-6.2496834,4.4240341-7.6657524        C51.8707504,48.8962135,53.86446,50.0321655,53.8721962,52.8527184z"/><path class="st30" d="M53.0994415,52.8546524c0.0107307,3.5057297-3.2759132,7.4976768-5.644989,7.4976768        c-1.2293015,0-1.6848145-1.1517982-1.6884727-2.3762321c-0.0105858-3.4582481,3.2163467-7.4602356,5.6160088-7.4996109        h0.0289688C52.4638405,50.4764862,53.0955734,51.3651733,53.0994415,52.8546524z"/><path class="st127" d="M47.6882133,59.0502396c-0.5621872,0.324543-1.1069794,0.498394-1.5783615,0.5041962        c-1.1577682-2.0739136,0.7108192-6.8485451,3.6937828-8.5737076c0.5621758-0.3245659,1.1069717-0.4965096,1.5783539-0.5042419        C52.5464058,52.5343933,50.6795006,57.324379,47.6882133,59.0502396z"/></g></g></g><g><g><g class="st130"><g><path class="st127" d="M89.9831848,29.8513126c-0.2425003-0.1368046-0.4750061,0.125061-0.7218323-0.0041199         l-0.021637,31.4993229c0.2135544,0.1156845,0.4343185,0.224472,0.6446762,0.3430443         c8.6004028,4.8484497,12.8955536,11.2265854,12.8772125,17.5948334l0.098793-31.8383484         C102.8788376,41.0777969,98.5834808,34.6997643,89.9831848,29.8513126z"/></g></g><g class="st130"><path class="st127" d="M90.222702,65.2404175c-14.255127,8.2841797-36.050293,9.6035156-52.810791,3.9980469v31.8718262        c16.7474365,5.567627,38.4868164,4.2365723,52.7141113-4.0314941        c8.4450684-4.9077148,12.6726074-11.3446045,12.6906738-17.7912598l0.0966797-31.8383789        C102.8950653,53.8959351,98.6675262,60.3327026,90.222702,65.2404175z"/></g><g><path class="st127" d="M102.8168182,78.4303589c-0.0183105,6.4466553-4.2457275,12.8835449-12.6907959,17.7912598        c-14.2272949,8.2680664-35.9666748,9.5991211-52.7141113,4.0314941v0.8571777        c16.7474365,5.567627,38.4868164,4.2365723,52.7141113-4.0314941        c8.4450684-4.9077148,12.6724854-11.3447266,12.6907959-17.7912598l0.0965576-31.8383789        C102.9035416,49.1799393,102.8358688,72.3144302,102.8168182,78.4303589z"/></g><g><g class="st0"><g><path class="st112" d="M90.0207977,29.4083843c-0.0842285-0.0422363-0.1602783-0.0928955-0.2446289-0.1351318          l-0.5401611,0.5655518c0.0084229,0.0083008,0.0169678,0.0083008,0.0252686,0.0083008          c16.684082,9.6374531,16.7768555,25.3088398,0.1940918,34.9462891          c-14.0600586,8.1682129-35.6242676,9.3934326-52.043457,3.7185059v0.7261963          c16.7641602,5.6072998,38.5593262,4.2921143,52.8114014-3.9974365          C107.2197723,55.3584595,107.1352997,39.2904663,90.0207977,29.4083843z"/></g></g></g><g class="st130"><path class="st4" d="M64.9082642,76.243576c-8.430027,0.5885391-16.4356384-0.1658707-23.497406-1.8859482v24.0337067        c7.5491371,2.0788879,15.7432632,2.6868286,23.497406,2.0808258V76.243576z"/></g><path class="st114" d="M67.8174515,75.9873428v24.1959686c7.7247696-0.9313812,14.7784805-3.1157608,20.4029465-6.3842926       c6.9512024-4.0395889,10.7879791-9.197197,10.8032608-14.5251999l0.0388947-15.840126       C91.0481796,70.9463425,78.8816833,74.7957687,67.8174515,75.9873428z"/><path class="st23" d="M85.6287079,77.5354767c1.0145569-0.0727844,2.6768188-0.0636444,4.2941666,0.5092545       c0.6968765,0.2468414,1.0167084,1.0580521,0.6961594,1.7242432c-0.7965393,1.6554184-2.40802,4.6780396-4.2713013,6.3649216       c-0.7418823,0.6716461-1.9463272,0.2549515-2.0936966-0.7348862c-0.2919769-1.9612122-0.221344-4.2355194,0.2274094-6.8365021       C84.5790253,77.9969482,85.0562668,77.5765533,85.6287079,77.5354767z"/></g><g class="st111"><path class="st23" d="M72.2659912,96.3038025l-0.0520477-0.5007858       c5.2205505-0.5426102,13.4642334-3.0035324,23.0911102-11.6466675l0.3365402,0.3748169       C85.9138489,93.2643738,77.5608826,95.7534637,72.2659912,96.3038025z"/></g><g><ellipse transform="matrix(0.9923318 -0.1236025 0.1236025 0.9923318 -10.9809542 10.6972361)" class="st23" cx="80.7231674" cy="93.8488693" rx="1.086869" ry="1.7484177"/></g><g class="st111"><path class="st19" d="M72.2149124,95.8042831l0.050293,0.4977188c2.0702591-0.2139206,4.5993576-0.7234497,7.5055389-1.7854919       c-0.0523758-0.1548233-0.094368-0.3188324-0.1186676-0.4939957       C76.7679596,95.0800629,74.2616272,95.590126,72.2149124,95.8042831z"/></g></g><linearGradient id="SVGID_1_" gradientUnits="userSpaceOnUse" x1="61.671814" y1="39.7903442" x2="84.2675095" y2="53.9946938"><stop offset="0.3128493" style="stop-color:#49E4A3;stop-opacity:0.7"/><stop offset="0.4743572" style="stop-color:#4BE6AB;stop-opacity:0.5354719"/><stop offset="0.7225397" style="stop-color:#50EDC0;stop-opacity:0.2826486"/><stop offset="1" style="stop-color:#57F7E0;stop-opacity:0"/></linearGradient><path style="opacity:0.8;fill:url(#SVGID_1_);" d="M94.059845,49.5612526l-9.8789902,14.9681664l-19.0493393-15.321228     c-2.6051025-2.6531982,2.5549316-11.0944824,5.8398438-9.2813721L94.059845,49.5612526z"/><linearGradient id="SVGID_2_" gradientUnits="userSpaceOnUse" x1="42.7087936" y1="51.0485535" x2="65.3044891" y2="65.2528992"><stop offset="0.3128493" style="stop-color:#49E4A3;stop-opacity:0.7"/><stop offset="0.4743572" style="stop-color:#4BE6AB;stop-opacity:0.5354719"/><stop offset="0.7225397" style="stop-color:#50EDC0;stop-opacity:0.2826486"/><stop offset="1" style="stop-color:#57F7E0;stop-opacity:0"/></linearGradient><path style="opacity:0.8;fill:url(#SVGID_2_);" d="M75.389946,60.3531761L64.9082642,76.243576L46.4616165,60.0001106     c-2.6051025-2.6531982,2.5549316-11.0944824,5.8398438-9.2813721L75.389946,60.3531761z"/></g><g><g class="st0"><g><path class="st97" d="M59.395443,43.7666969l0.8696251,0.5053749       c-0.3638535-0.2114525-0.8673973-0.1816483-1.4227905,0.1390076l-0.8696251-0.5053711       C58.5280457,43.5850525,59.0315895,43.5552483,59.395443,43.7666969z"/></g><g><path class="st97" d="M57.4315796,49.1528282l-0.8696251-0.5053673       c-0.3592987-0.2088051-0.5819397-0.6528931-0.5837288-1.2836151c-0.0036087-1.2727242,0.888382-2.819561,1.9944267-3.4581375       l0.8696251,0.5053711c-1.1060448,0.6385765-1.9980354,2.1854134-1.9944267,3.4581375       C56.8496361,48.499939,57.0722809,48.9440269,57.4315796,49.1528282z"/></g><g><path class="st23" d="M58.8422775,44.4110794c1.1044846-0.6376724,2.0038948-0.125103,2.0075035,1.1476212       c0.0035973,1.2691383-0.8899727,2.816864-1.9944572,3.4545403c-1.1060448,0.6385765-2.0038757,0.1251144-2.007473-1.1440239       C56.8442421,46.5964928,57.7362328,45.0496559,58.8422775,44.4110794z"/></g></g></g></g><g><g><g class="st0"><g><path class="st16" d="M36.6715546,15.9645109l-0.0021362,1.0904016       c-0.0014687,0.518425-0.3420982,1.0360699-1.0225754,1.4315186c-1.3704567,0.796423-3.5994797,0.7964325-4.978199,0.0004311       c-0.6941395-0.4007626-1.0408192-0.9267979-1.0393295-1.4520302l0.0021343-1.0903997       c-0.0051708,1.8245897,3.8196239,2.7288809,6.0175304,1.4515982       C36.3294525,17.0005817,36.6700859,16.4829388,36.6715546,15.9645109z"/></g><g><path class="st13" d="M36.6666794,15.963871v1.0964375c0,0.5173168-0.3449783,1.0349331-1.0224495,1.4290848       c-1.3675804,0.7884541-3.5972977,0.7884541-4.9770565,0v-1.0964375c1.3797588,0.8006344,3.6094761,0.8006344,4.9770565,0       C36.334034,16.9986515,36.6666794,16.4813366,36.6666794,15.963871z"/></g><g><path class="st7" d="M35.6327515,14.5128794c1.3787155,0.7960024,1.3859825,2.0871363,0.0162277,2.8831511       c-1.3704567,0.796423-3.5994835,0.7964344-4.978199,0.0004311c-1.3794231-0.7964096-1.3866806-2.0875387-0.0162239-2.8839607       C32.0243149,13.716485,34.2533264,13.7164688,35.6327515,14.5128794z"/></g></g></g><g><g class="st0"><g><path class="st19" d="M34.254776,9.332284l-0.0006714,6.4803991c-0.0004616,0.1625957-0.107296,0.3249474-0.3207169,0.4489727       c-0.6734962,0.3913937-1.8889542,0.127882-1.8873024-0.4552708l0.0006714-6.4803991       c-0.0004692,0.164731,0.1082611,0.3297138,0.3259697,0.4554062C33.0447578,10.1693907,34.2531281,9.9132147,34.254776,9.332284       z"/></g></g></g><path class="st50" d="M37.0328712,9.5519934c0,2.2296095-1.8050003,4.0346098-4.022728,4.0346098    c-2.2982998,0-4.0346832-1.8629436-4.0346832-4.0346098c0-2.3772221,2.0998478-4.3886633,4.7188644-3.9757099    C35.5818405,5.9066386,37.0328712,7.5700068,37.0328712,9.5519934z"/><path class="st23" d="M35.0510292,8.596426c0,2.4030743-2.1152,4.3864355-4.7188663,3.9756384    c-0.837553-0.743227-1.3567028-1.8168097-1.3567028-3.020071c0-2.3772221,2.0998478-4.3886633,4.7188644-3.9757099    C34.5320206,6.3195105,35.0510292,7.3930926,35.0510292,8.596426z"/></g></g></svg>